<?xml version="1.0" encoding="UTF-8" standalone="no"?>
<!-- Created with Inkscape (http://www.inkscape.org/) -->

<svg
   width="39.990658mm"
   height="29.380636mm"
   viewBox="0 0 39.990658 29.380636"
   version="1.1"
   id="svg1"
   xmlns="http://www.w3.org/2000/svg"
   xmlns:svg="http://www.w3.org/2000/svg">
  <defs
     id="defs1" />
  <g
     id="layer1"
     transform="translate(-9.9043047,-2.060856)">
    <path
       id="path1"
       style="fill:#d5e5e7;stroke-width:0.105"
       d="m 34.565849,2.0608561 c -4.295285,1.4e-6 -7.777302,3.4820178 -7.777303,7.7773031 0.007,1.6513998 0.539479,3.2577048 1.52032,4.5862838 H 22.800159 C 22.800058,10.863536 19.913397,7.976875 16.35249,7.9767741 12.791381,7.97659 9.904406,10.863334 9.904305,14.424443 c 0.00831,3.400186 2.65555,6.209572 6.049243,6.419763 v 6.592362 c 0,2.218759 1.786165,4.004924 4.004924,4.004924 h 19.523873 c 2.218759,0 4.00544,-1.786165 4.00544,-4.004924 v -1.61437 l 0.80907,0.554761 v 0.05701 c 0,1.577399 1.248637,2.548244 2.799313,2.548244 1.550677,0 2.798795,-1.269972 2.798795,-2.847371 v -6.403227 c 0,-1.577399 -1.248118,-2.847371 -2.798795,-2.847371 -1.550167,0 -2.798492,1.269143 -2.799313,2.845821 l -0.80907,0.565627 v -1.866323 c 0,-1.799212 -1.175097,-3.312939 -2.802413,-3.821472 1.067724,-1.361271 1.65108,-3.039692 1.65778,-4.7697348 -1e-6,-4.2952853 -3.482018,-7.7773017 -7.777303,-7.7773021 z" />
  </g>
</svg>
